<?xml version="1.0" encoding="iso-8859-1"?>
<!-- Uploaded to: SVG Repo, www.svgrepo.com, Generator: SVG Repo Mixer Tools -->
<svg version="1.1" id="Layer_1" xmlns="http://www.w3.org/2000/svg" xmlns:xlink="http://www.w3.org/1999/xlink" 
	 viewBox="0 0 512 512" xml:space="preserve">
<polygon style="fill:#A2B1B7;" points="503.83,8.17 503.83,117.106 405.787,160.681 471.149,8.17 "/>
<path style="fill:#C4D3D9;" d="M471.149,8.17v185.191L8.17,117.106V8.17H471.149z"/>
<polygon style="fill:#414D53;" points="503.83,117.106 503.83,503.83 471.149,503.83 416.681,310.468 471.149,117.106 "/>
<polygon style="fill:#748993;" points="8.17,117.106 8.17,503.83 471.149,503.83 471.149,182.468 460.255,166.128 471.149,149.787 
	471.149,117.106 "/>
<polygon style="fill:#F37C4A;" points="438.468,247.83 438.468,438.468 405.787,438.468 362.213,343.149 405.787,247.83 "/>
<g>
	<path style="fill:#C4D3D9;" d="M123.969,40.851c12.037,0,21.787,9.75,21.787,21.787s-9.75,21.787-21.787,21.787
		s-21.787-9.75-21.787-21.787S111.932,40.851,123.969,40.851z"/>
	<path style="fill:#C4D3D9;" d="M382.148,40.851c12.037,0,21.787,9.75,21.787,21.787s-9.75,21.787-21.787,21.787
		c-12.037,0-21.787-9.75-21.787-21.787S370.111,40.851,382.148,40.851z"/>
</g>
<polygon style="fill:#414D53;" points="316.786,40.851 316.786,84.426 284.105,84.426 262.318,62.638 284.105,40.851 "/>
<rect x="73.532" y="247.83" style="fill:#F7A676;" width="332.255" height="190.638"/>
<rect x="189.331" y="40.851" style="fill:#57676E;" width="94.774" height="43.574"/>
<polygon style="fill:#A2B1B7;" points="471.149,149.787 471.149,182.468 438.468,182.468 416.681,166.128 438.468,149.787 "/>
<rect x="40.851" y="149.787" style="fill:#C4D3D9;" width="397.617" height="32.681"/>
<path d="M123.969,92.596c16.518,0,29.957-13.438,29.957-29.957s-13.439-29.957-29.957-29.957S94.012,46.119,94.012,62.638
	S107.451,92.596,123.969,92.596z M123.969,49.021c7.509,0,13.617,6.108,13.617,13.617c0,7.509-6.109,13.617-13.617,13.617
	c-7.508,0-13.617-6.108-13.617-13.617S116.46,49.021,123.969,49.021z"/>
<path d="M382.148,92.596c16.518,0,29.957-13.438,29.957-29.957s-13.439-29.957-29.957-29.957c-16.518,0-29.957,13.438-29.957,29.957
	S365.63,92.596,382.148,92.596z M382.148,49.021c7.509,0,13.617,6.108,13.617,13.617c0,7.509-6.109,13.617-13.617,13.617
	c-7.508,0-13.617-6.108-13.617-13.617S374.639,49.021,382.148,49.021z"/>
<path d="M503.83,0H8.17C3.657,0,0,3.658,0,8.17v108.936c0,4.512,3.657,8.17,8.17,8.17H495.66V495.66H16.34V149.787
	c0-4.512-3.657-8.17-8.17-8.17S0,145.275,0,149.787V503.83c0,4.512,3.657,8.17,8.17,8.17h495.66c4.513,0,8.17-3.658,8.17-8.17V8.17
	C512,3.658,508.343,0,503.83,0z M495.66,108.936H16.34V16.34H495.66V108.936z"/>
<path d="M189.331,92.596h127.455c4.513,0,8.17-3.658,8.17-8.17V40.851c0-4.512-3.657-8.17-8.17-8.17H189.331
	c-4.513,0-8.17,3.658-8.17,8.17v43.574C181.161,88.938,184.818,92.596,189.331,92.596z M197.501,49.021h111.115v27.234H197.501
	L197.501,49.021L197.501,49.021z"/>
<path d="M272.34,446.638h166.128c4.513,0,8.17-3.658,8.17-8.17V247.83c0-4.512-3.657-8.17-8.17-8.17H73.532
	c-4.513,0-8.17,3.658-8.17,8.17v190.638c0,4.512,3.657,8.17,8.17,8.17H239.66c4.513,0,8.17-3.658,8.17-8.17
	c0-4.512-3.657-8.17-8.17-8.17H81.702V256h348.596v174.298H272.34c-4.513,0-8.17,3.658-8.17,8.17
	C264.17,442.98,267.827,446.638,272.34,446.638z"/>
<path d="M106.213,319.546h299.574c4.513,0,8.17-3.658,8.17-8.17s-3.657-8.17-8.17-8.17H106.213c-4.513,0-8.17,3.658-8.17,8.17
	S101.7,319.546,106.213,319.546z"/>
<path d="M106.213,383.093h299.574c4.513,0,8.17-3.658,8.17-8.17c0-4.512-3.657-8.17-8.17-8.17H106.213
	c-4.513,0-8.17,3.658-8.17,8.17C98.043,379.434,101.7,383.093,106.213,383.093z"/>
<path d="M479.319,182.468v-32.681c0-4.512-3.657-8.17-8.17-8.17H40.851c-4.513,0-8.17,3.658-8.17,8.17v32.681
	c0,4.512,3.657,8.17,8.17,8.17h430.298C475.662,190.638,479.319,186.98,479.319,182.468z M462.979,174.298H49.021v-16.34h413.957
	V174.298z"/>
</svg>